<?xml version="1.0" encoding="utf-8"?>
<!-- Generator: Adobe Illustrator 27.5.0, SVG Export Plug-In . SVG Version: 6.00 Build 0)  -->
<svg version="1.1" id="_x31_" xmlns="http://www.w3.org/2000/svg" xmlns:xlink="http://www.w3.org/1999/xlink" x="0px" y="0px"
	 viewBox="0 0 450 450" style="enable-background:new 0 0 450 450;" xml:space="preserve">
<g>
	<g>
		<path style="fill:#453B61;" d="M281.692,380.748c1.095,0.042,2.115-0.668,2.422-1.768c0.361-1.288-0.392-2.624-1.68-2.984
			l-14.349-4.012l14.835,0.14c1.338,0.013,2.433-1.062,2.445-2.398c0.012-1.338-1.031-2.383-2.398-2.445l-33.128-0.313
			c-1.216-0.011-2.25,0.879-2.421,2.082c-0.171,1.203,0.576,2.345,1.745,2.672l31.967,8.937
			C281.318,380.711,281.507,380.741,281.692,380.748z"/>
		<path style="fill:#453B61;" d="M274.059,387.286c0.841,0.032,1.674-0.376,2.15-1.141c0.707-1.134,0.36-2.627-0.776-3.334
			l-24.282-15.117c-1.135-0.71-2.629-0.358-3.334,0.776c-0.707,1.134-0.36,2.629,0.776,3.334l24.282,15.117
			C273.243,387.152,273.652,387.271,274.059,387.286z"/>
		<path style="fill:#453B61;" d="M252.306,373.3c-0.597,0-1.202-0.109-1.791-0.339c-2.529-0.989-3.78-3.842-2.792-6.373
			c0.161-0.411,15.843-41.249,0.796-59.397c-1.735-2.091-1.445-5.194,0.647-6.928c2.094-1.733,5.193-1.444,6.928,0.647
			c18.746,22.606,1.536,67.369,0.794,69.263C256.127,372.113,254.271,373.3,252.306,373.3z"/>
	</g>
	<g>
		<path style="fill:#453B61;" d="M165.052,380.748c-1.095,0.042-2.116-0.668-2.423-1.768c-0.361-1.288,0.392-2.624,1.68-2.984
			l14.349-4.012l-14.835,0.14c-1.338,0.013-2.432-1.062-2.445-2.398c-0.012-1.338,1.03-2.383,2.398-2.445l33.128-0.313
			c1.216-0.011,2.25,0.879,2.421,2.082c0.171,1.203-0.576,2.345-1.745,2.672l-31.967,8.937
			C165.426,380.711,165.237,380.741,165.052,380.748z"/>
		<path style="fill:#453B61;" d="M172.685,387.286c-0.841,0.032-1.674-0.376-2.15-1.141c-0.707-1.134-0.36-2.627,0.776-3.334
			l24.282-15.117c1.135-0.71,2.629-0.358,3.334,0.776c0.707,1.134,0.36,2.629-0.776,3.334l-24.282,15.117
			C173.5,387.152,173.091,387.271,172.685,387.286z"/>
		<path style="fill:#453B61;" d="M194.438,373.3c-1.965,0-3.822-1.187-4.582-3.127c-0.742-1.894-17.952-46.656,0.794-69.263
			c1.734-2.095,4.837-2.384,6.928-0.647c2.093,1.734,2.382,4.837,0.647,6.928c-15.048,18.148,0.634,58.987,0.796,59.397
			c0.988,2.531-0.263,5.384-2.792,6.373C195.641,373.19,195.035,373.3,194.438,373.3z"/>
	</g>
	<g>
		<path style="fill:#453B61;" d="M303.4,267.247l0.392,0.269l4.958,4.189c0.564,2.235,2.036,7.643,3.006,7.292
			c1.219-0.441,4.177-5.394,6.284-3.435c2.291,2.131-5.77,7.596-3.937,7.249c1.833-0.347,7.644-5.242,8.339-1.576
			c0.695,3.666-13.205,8.055-17.629,5.493c-4.424-2.562-4.429-10.729-4.429-10.729L303.4,267.247z"/>
		<path style="fill:#453B61;" d="M305.696,273.893c-2.467,0-4.594-1.853-4.881-4.363c-0.307-2.699,1.631-5.136,4.33-5.446
			c0.396-0.046,39.635-4.811,39.635-26.748c0-18.656-33.006-30.392-45.724-33.34c-2.647-0.614-4.296-3.257-3.682-5.905
			c0.613-2.648,3.247-4.293,5.905-3.682c2.177,0.506,53.344,12.712,53.344,42.927c0,30.694-46.392,36.301-48.366,36.524
			C306.068,273.883,305.882,273.893,305.696,273.893z"/>
	</g>
	<g>
		<path style="fill:#453B61;" d="M146.6,267.247l-0.392,0.269l-4.958,4.189c-0.564,2.235-2.037,7.643-3.006,7.292
			c-1.219-0.441-4.177-5.394-6.284-3.435c-2.291,2.131,5.77,7.596,3.937,7.249c-1.833-0.347-7.645-5.242-8.339-1.576
			c-0.695,3.666,13.205,8.055,17.629,5.493c4.424-2.562,4.429-10.729,4.429-10.729L146.6,267.247z"/>
		<path style="fill:#453B61;" d="M144.304,273.893c-0.186,0-0.372-0.01-0.56-0.032c-1.974-0.223-48.366-5.831-48.366-36.524
			c0-30.215,51.165-42.422,53.343-42.927c2.654-0.603,5.289,1.036,5.902,3.68c0.615,2.646-1.032,5.29-3.677,5.906
			c-12.719,2.962-45.726,14.727-45.726,33.341c0,22.003,39.234,26.702,39.631,26.748c2.7,0.305,4.642,2.743,4.335,5.442
			C148.902,272.039,146.773,273.893,144.304,273.893z"/>
	</g>
	<g>
		<g>
			
				<radialGradient id="SVGID_1_" cx="271.5099" cy="-35.7596" r="16.4859" gradientTransform="matrix(0.921 0.3895 -0.3895 0.921 -74.6134 10.8074)" gradientUnits="userSpaceOnUse">
				<stop  offset="0" style="stop-color:#F7F3F3"/>
				<stop  offset="1" style="stop-color:#D1BCBB"/>
			</radialGradient>
			<path style="fill:url(#SVGID_1_);" d="M176.442,99.033c0,0,0.363-36.321,11.704-36.321c11.022,0,11.376,30.771,11.376,30.771
				L176.442,99.033z"/>
			<path style="opacity:0.7;fill:#D1BCBB;" d="M192.349,91.666l-14.984,7.145l22.157-5.329c0,0-0.354-30.771-11.376-30.771
				c-0.353,0-0.695,0.036-1.027,0.104C195.402,66.559,192.349,91.666,192.349,91.666z"/>
			<path style="opacity:0.4;fill:#FFFFFF;" d="M180.074,89.146c0,0,1.987-22.12,5.955-21.389c2.711,0.5,1.915,14.73,1.915,14.73
				L180.074,89.146z"/>
		</g>
		<g>
			
				<radialGradient id="SVGID_00000039836173133239133700000010663975292112743103_" cx="-220.8899" cy="172.4811" r="16.4858" gradientTransform="matrix(-0.921 0.3895 0.3895 0.921 -9.2379 10.8074)" gradientUnits="userSpaceOnUse">
				<stop  offset="0" style="stop-color:#F7F3F3"/>
				<stop  offset="1" style="stop-color:#D1BCBB"/>
			</radialGradient>
			<path style="fill:url(#SVGID_00000039836173133239133700000010663975292112743103_);" d="M274.316,99.033
				c0,0-0.363-36.321-11.703-36.321c-11.023,0-11.376,30.771-11.376,30.771L274.316,99.033z"/>
			<path style="opacity:0.7;fill:#D1BCBB;" d="M267.492,97.392l6.825,1.641c0,0-0.363-36.321-11.703-36.321
				c-0.427,0-0.809,0.125-1.204,0.214C268.924,65.381,267.902,90.664,267.492,97.392z"/>
			<path style="opacity:0.4;fill:#FFFFFF;" d="M255.272,79.124l8.744,4.977c0,0,0.984-17.634-3.094-18.16
				C256.752,65.402,255.272,79.124,255.272,79.124z"/>
		</g>
	</g>
	<g>
		
			<linearGradient id="SVGID_00000166673254541752661020000006437987095279727780_" gradientUnits="userSpaceOnUse" x1="178.8624" y1="-418.7121" x2="232.1666" y2="-418.7121" gradientTransform="matrix(0.979 0.2038 0.2038 -0.979 33.3811 -328.4277)">
			<stop  offset="0" style="stop-color:#FF8ADE"/>
			<stop  offset="0.46" style="stop-color:#D160A8"/>
			<stop  offset="0.9922" style="stop-color:#972B65"/>
		</linearGradient>
		<path style="fill:url(#SVGID_00000166673254541752661020000006437987095279727780_);" d="M181.026,111.704
			c-4.264,3.983-7.768,12.695-17.413,32.55c-10.338,21.282-13.649,26.864-20.075,22.933c-6.137-3.755-0.842-16.002-0.842-16.002
			s-12.767-2.166-13.475-11.369c-0.842-10.948,14.317-12.212,14.317-12.212s-16.301-6.142-12.281-18.165
			c3.672-10.982,19.44-6.679,19.44-6.679s-13.274-10.811-10.907-19.481c2.367-8.67,16.518-6.982,27.684,5.285
			C177.903,100.024,181.026,111.704,181.026,111.704z"/>
		<path style="opacity:0.3;fill:#8D304C;" d="M154.767,160.309c0,0-3.509,5.334-8.422,3.79c-4.912-1.544-0.281-14.598-0.281-14.598
			c-17.967-1.544-16.142-13.756-16.142-13.756l-0.207,0.112c-0.405,1.158-0.61,2.46-0.495,3.959
			c0.708,9.203,13.475,11.369,13.475,11.369s-5.295,12.247,0.842,16.002c4.168,2.55,7.035,1.06,11.349-6.082L154.767,160.309z"/>
		<path style="opacity:0.3;fill:#8D304C;" d="M168.444,114.461c-0.487-6.438-9.129-21.026-12.511-17.45
			c-3.382,3.577,5.735,13.911,5.735,13.911s-11.176-3.412-14.22,4.19c-3.044,7.602,7.266,14.764,7.266,14.764
			s-8.488,3.076-8.591,9.285c-0.12,7.251,8.926,6.049,8.926,6.049S168.931,120.899,168.444,114.461z"/>
		<path style="opacity:0.3;fill:#8D304C;" d="M177.324,102.749c-2.116-4.104-5.283-9.165-9.851-14.185
			c-8.949-9.832-19.801-12.85-24.982-9.205c7.474-4.823,28.127,15.928,27.014,27.892C168.71,115.807,174.106,108.02,177.324,102.749
			z"/>
		<path style="opacity:0.3;fill:#FFFFFF;" d="M145.433,104.023c0,0-10.106-1.684-12.633,6.316
			c-2.346,7.429,6.527,12.212,6.527,12.212s-3.158-4.842-2.105-10.738C138.275,105.918,145.433,104.023,145.433,104.023z"/>
		<path style="opacity:0.3;fill:#FFFFFF;" d="M141.509,130.105c0,0-8.932,0.179-9.987,6.945c-0.98,6.281,7.323,8.761,7.323,8.761
			s-3.394-3.388-3.313-8.251C135.614,132.697,141.509,130.105,141.509,130.105z"/>
		<path style="opacity:0.3;fill:#FFFFFF;" d="M145.222,94.338c0,0-5.123-3.509-4.211-9.896c0.495-3.464,2.998-4.487,3.806-3.799
			c1.237,1.053-0.753,2.905-1.069,5.905C143.302,90.788,145.222,94.338,145.222,94.338z"/>
	</g>
	<g>
		
			<linearGradient id="SVGID_00000032647163842133584190000000342288843128329350_" gradientUnits="userSpaceOnUse" x1="-317.1351" y1="-521.9647" x2="-263.8312" y2="-521.9647" gradientTransform="matrix(-0.979 0.2038 -0.2038 -0.979 -90.098 -328.4277)">
			<stop  offset="0" style="stop-color:#FF8ADE"/>
			<stop  offset="0.46" style="stop-color:#D160A8"/>
			<stop  offset="0.9922" style="stop-color:#972B65"/>
		</linearGradient>
		<path style="fill:url(#SVGID_00000032647163842133584190000000342288843128329350_);" d="M268.882,111.704
			c4.264,3.983,7.768,12.695,17.413,32.55c10.338,21.282,13.649,26.864,20.075,22.933c6.138-3.755,0.842-16.002,0.842-16.002
			s12.767-2.166,13.475-11.369c0.842-10.948-14.317-12.212-14.317-12.212s16.301-6.142,12.281-18.165
			c-3.672-10.982-19.44-6.679-19.44-6.679s13.274-10.811,10.907-19.481c-2.367-8.67-16.518-6.982-27.684,5.285
			C272.004,100.024,268.882,111.704,268.882,111.704z"/>
		<path style="opacity:0.3;fill:#8D304C;" d="M295.14,160.309c0,0,3.509,5.334,8.422,3.79c4.913-1.544,0.281-14.598,0.281-14.598
			c17.967-1.544,16.142-13.756,16.142-13.756l0.207,0.112c0.405,1.158,0.61,2.46,0.495,3.959
			c-0.708,9.203-13.475,11.369-13.475,11.369s5.295,12.247-0.842,16.002c-4.167,2.55-7.035,1.06-11.349-6.082L295.14,160.309z"/>
		<path style="opacity:0.3;fill:#8D304C;" d="M281.464,114.461c0.487-6.438,9.129-21.026,12.511-17.45
			c3.382,3.577-5.735,13.911-5.735,13.911s11.176-3.412,14.22,4.19c3.044,7.602-7.266,14.764-7.266,14.764s8.488,3.076,8.591,9.285
			c0.12,7.251-8.925,6.049-8.925,6.049S280.976,120.899,281.464,114.461z"/>
		<path style="opacity:0.3;fill:#8D304C;" d="M272.583,102.749c2.116-4.104,5.282-9.165,9.851-14.185
			c8.949-9.832,19.801-12.85,24.982-9.205c-7.474-4.823-28.127,15.928-27.014,27.892
			C281.198,115.807,275.802,108.02,272.583,102.749z"/>
		<path style="opacity:0.3;fill:#FFFFFF;" d="M304.474,104.023c0,0,10.106-1.684,12.633,6.316
			c2.346,7.429-6.527,12.212-6.527,12.212s3.158-4.842,2.105-10.738C311.633,105.918,304.474,104.023,304.474,104.023z"/>
		<path style="opacity:0.3;fill:#FFFFFF;" d="M308.398,130.105c0,0,8.932,0.179,9.987,6.945c0.98,6.281-7.323,8.761-7.323,8.761
			s3.395-3.388,3.313-8.251C314.293,132.697,308.398,130.105,308.398,130.105z"/>
		<path style="opacity:0.3;fill:#FFFFFF;" d="M304.685,94.338c0,0,5.123-3.509,4.211-9.896c-0.495-3.464-2.998-4.487-3.806-3.799
			c-1.237,1.053,0.753,2.905,1.069,5.905C306.605,90.788,304.685,94.338,304.685,94.338z"/>
	</g>
	
		<radialGradient id="SVGID_00000036937446512880808190000009637201731558466446_" cx="262.0162" cy="215.5174" r="188.7577" gradientTransform="matrix(0.8834 0 0 1 -6.1075 0)" gradientUnits="userSpaceOnUse">
		<stop  offset="0" style="stop-color:#5BEBF5"/>
		<stop  offset="0.226" style="stop-color:#53C8DC"/>
		<stop  offset="0.7562" style="stop-color:#4179A3"/>
		<stop  offset="1" style="stop-color:#3A5A8D"/>
	</radialGradient>
	<path style="fill:url(#SVGID_00000036937446512880808190000009637201731558466446_);" d="M294.351,135.48
		c-19.571-63.903-68.038-60.728-68.993-60.659c-0.955-0.069-49.422-3.244-68.993,60.659c-18.869,61.611-8.906,155.022-4.77,191.972
		c0,0,7.286,0.486,14.587-7.303c0,0,1.784,2.926,3.761,5.117c0,0,4.417-3.896,7.129-7.805c0,0,4.018,8.535,9.007,12.659
		c0,0,4.671-2.182,8.467-6.557c0,0,1.743,2.433,4.329,4.133c0,0,4.676-3.402,7.005-6.814c0,0,3.251,5.114,7.117,7.784
		c0,0,2.128-2.427,4.261-4.616c0,0,3.612,7.664,8.06,9.182v0.033c0.014-0.005,0.027-0.012,0.04-0.017
		c0.014,0.005,0.027,0.012,0.04,0.017v-0.033c4.447-1.517,8.059-9.182,8.059-9.182c2.133,2.189,4.261,4.616,4.261,4.616
		c3.866-2.67,7.117-7.784,7.117-7.784c2.329,3.412,7.005,6.814,7.005,6.814c2.587-1.7,4.329-4.133,4.329-4.133
		c3.796,4.375,8.467,6.557,8.467,6.557c4.988-4.124,9.006-12.659,9.006-12.659c2.712,3.909,7.129,7.805,7.129,7.805
		c1.977-2.19,3.761-5.117,3.761-5.117c7.301,7.789,14.587,7.303,14.587,7.303C303.257,290.502,313.22,197.09,294.351,135.48z"/>
	
		<linearGradient id="SVGID_00000098221688229825664730000012582466841034231718_" gradientUnits="userSpaceOnUse" x1="225.3092" y1="82.083" x2="225.3092" y2="178.9401">
		<stop  offset="0" style="stop-color:#FFFFFF"/>
		<stop  offset="0.3743" style="stop-color:#9E9E9E"/>
		<stop  offset="1" style="stop-color:#000000"/>
	</linearGradient>
	<path style="opacity:0.3;fill:url(#SVGID_00000098221688229825664730000012582466841034231718_);" d="M286.391,138.224
		c-17.313-57.828-60.189-54.954-61.033-54.892c-0.845-0.062-43.72-2.936-61.034,54.892c-3.037,10.143-5.221,21.948-6.754,34.654
		c16.138,11.376,40.352,12.518,67.434,12.518c27.421,0,51.908-1.419,68.043-13.278C291.52,159.704,289.367,148.163,286.391,138.224z
		"/>
	<g style="opacity:0.3;">
		<g>
			<path style="fill:#3A5A8D;" d="M294.351,135.48c-19.571-63.904-68.038-60.728-68.993-60.659
				c-0.955-0.069-49.422-3.244-68.993,60.659c-18.869,61.611-8.906,155.022-4.77,191.972c0,0,7.286,0.486,14.587-7.303
				c0,0,1.784,2.927,3.761,5.117c0,0,4.417-3.897,7.129-7.805c0,0,4.018,8.535,9.006,12.659c0,0,4.671-2.182,8.467-6.557
				c0,0,1.743,2.432,4.329,4.132c0,0,4.676-3.402,7.005-6.814c0,0,3.251,5.114,7.117,7.784c0,0,2.128-2.427,4.261-4.616
				c0,0,3.612,7.664,8.06,9.181v0.034c0.014-0.005,0.027-0.012,0.04-0.017c0.014,0.005,0.027,0.012,0.04,0.017v-0.034
				c4.447-1.517,8.059-9.181,8.059-9.181c2.133,2.188,4.261,4.616,4.261,4.616c3.866-2.67,7.117-7.784,7.117-7.784
				c2.329,3.411,7.005,6.814,7.005,6.814c2.587-1.7,4.329-4.132,4.329-4.132c3.796,4.375,8.467,6.557,8.467,6.557
				c4.988-4.124,9.006-12.659,9.006-12.659c2.712,3.909,7.129,7.805,7.129,7.805c1.978-2.19,3.761-5.117,3.761-5.117
				c7.301,7.789,14.587,7.303,14.587,7.303C303.256,290.502,313.22,197.09,294.351,135.48z M293.789,317.862
				c0,0-6.798,0.439-13.587-6.948c0,0-1.672,2.763-3.523,4.829c0,0-4.109-3.698-6.628-7.402c0,0-3.772,8.061-8.437,11.948
				c0,0-4.351-2.077-7.879-6.225c0,0-1.632,2.296-4.05,3.896c0,0-4.352-3.231-6.516-6.464c0,0-3.047,4.828-6.661,7.342
				c0,0-1.979-2.302-3.962-4.378c0,0-3.391,7.239-7.544,8.661v0.031c-0.013-0.004-0.025-0.011-0.038-0.016
				c-0.013,0.004-0.025,0.012-0.038,0.016v-0.031c-4.144-1.447-7.492-8.707-7.492-8.707c-1.996,2.064-3.988,4.354-3.988,4.354
				c-3.599-2.536-6.617-7.382-6.617-7.382c-2.183,3.22-6.554,6.425-6.554,6.425c-2.408-1.615-4.027-3.92-4.027-3.92
				c-3.553,4.128-7.917,6.178-7.917,6.178c-4.642-3.915-8.366-11.998-8.366-11.998c-2.541,3.69-6.672,7.363-6.672,7.363
				c-1.839-2.077-3.494-4.85-3.494-4.85c-6.833,7.346-13.628,6.866-13.628,6.866c-2.248-20.937-7.835-45.678-6.943-93.307
				c0.598-31.899,4.872-63.637,12.003-86.989c18.438-60.386,63.64-57.247,64.531-57.179c0.891-0.063,46.111-2.93,64.187,57.565
				c7.113,23.808,11.168,56.282,11.5,88.751C301.931,273.364,296.134,297.187,293.789,317.862z"/>
		</g>
	</g>
	<g>
		<g style="opacity:0.3;">
			<path style="fill:#4A3F77;" d="M228.399,156.902c1.15,16.285-11.065,30.433-27.354,30.517
				c-16.285,0.084-28.772-13.93-27.949-30.219c0.768-15.204,13.004-26.872,27.378-26.952
				C214.85,130.167,227.326,141.701,228.399,156.902z"/>
		</g>
	</g>
	<g>
		<g style="opacity:0.3;">
			<path style="fill:#4A3F77;" d="M279.898,159.395c1.112,15.477-10.359,28.91-25.692,28.975
				c-15.329,0.065-27.109-13.264-26.364-28.742c0.695-14.447,12.19-25.524,25.72-25.587
				C267.095,133.977,278.86,144.949,279.898,159.395z"/>
		</g>
	</g>
	<g>
		<g>
			<path style="fill:#3C3F56;" d="M179.911,147.804c-0.055,0-0.112-0.004-0.17-0.013c-5.676-0.95-10.586-6.087-12.214-12.783
				c-0.133-0.545,0.202-1.096,0.747-1.228c0.545-0.132,1.096,0.201,1.228,0.747c1.417,5.824,5.766,10.453,10.576,11.257
				c0.553,0.093,0.928,0.618,0.835,1.171C180.829,147.452,180.399,147.804,179.911,147.804z"/>
			<path style="fill:#3C3F56;" d="M173.62,154.717c-2.956,0-5.922-1.241-8.15-3.601c-0.385-0.409-0.368-1.053,0.041-1.437
				c0.41-0.387,1.055-0.368,1.437,0.041c2.935,3.109,7.407,3.862,10.88,1.826c0.488-0.285,1.109-0.12,1.391,0.363
				c0.284,0.484,0.121,1.108-0.363,1.391C177.229,154.254,175.427,154.717,173.62,154.717z"/>
		</g>
		
			<radialGradient id="SVGID_00000158006465652649306280000002925674498186657419_" cx="211.9036" cy="183.9646" r="38.0381" gradientTransform="matrix(0.9984 0.0443 -0.0573 0.7578 -1.198 5.2467)" gradientUnits="userSpaceOnUse">
			<stop  offset="0" style="stop-color:#FFFFFF"/>
			<stop  offset="0.7098" style="stop-color:#DDC6C5"/>
			<stop  offset="0.8021" style="stop-color:#E4CFCE"/>
			<stop  offset="0.9539" style="stop-color:#F8E8E7"/>
			<stop  offset="1" style="stop-color:#FFF1F0"/>
		</radialGradient>
		<path style="fill:url(#SVGID_00000158006465652649306280000002925674498186657419_);" d="M225.819,156.043
			c1.042,14.548-10.037,27.188-24.811,27.266c-14.771,0.077-26.096-12.44-25.349-26.991c0.697-13.582,11.796-24.007,24.833-24.081
			C213.531,132.162,224.846,142.464,225.819,156.043z"/>
		<path style="opacity:0.4;fill:#FFFFFF;" d="M222.907,151.56c2.082,11.184-7.518,22.704-21.22,23.221
			c-15.715,0.593-25.209-10.475-23.788-20.973c1.454-10.733,9.017-19.294,20.606-19.914
			C210.063,133.275,220.934,140.964,222.907,151.56z"/>
		<path style="fill:#FFFFFF;" d="M213.847,149.353c-1.837-3.679-2.177-7.164-0.783-7.818c1.389-0.651,3.997,1.745,5.85,5.386
			c1.874,3.683,2.274,7.257,0.869,7.946C218.373,155.56,215.705,153.075,213.847,149.353z"/>
		
			<radialGradient id="SVGID_00000089575883369082704890000004749040034261903020_" cx="205.5886" cy="163.6053" r="10.0998" gradientTransform="matrix(0.9998 0.0197 -0.0188 0.955 -0.1368 2.2656)" gradientUnits="userSpaceOnUse">
			<stop  offset="0" style="stop-color:#C74A85"/>
			<stop  offset="0.2777" style="stop-color:#BD427A"/>
			<stop  offset="0.7617" style="stop-color:#A32D5D"/>
			<stop  offset="0.7686" style="stop-color:#A32D5D"/>
			<stop  offset="0.9243" style="stop-color:#A73062"/>
			<stop  offset="1" style="stop-color:#AB3367"/>
		</radialGradient>
		<path style="fill:url(#SVGID_00000089575883369082704890000004749040034261903020_);" d="M212.083,162.751
			c-0.109,5.506-4.561,9.882-9.944,9.776c-5.383-0.106-9.66-4.655-9.551-10.161s4.561-9.882,9.944-9.776
			C207.915,152.697,212.191,157.246,212.083,162.751z"/>
		<path style="fill:#FFFFFF;" d="M204.311,153.729c-2.049,2.568-2.208,5.891-0.211,7.876c1.788,1.777,4.768,1.945,7.358,0.63
			C210.46,157.001,207.824,154.659,204.311,153.729z"/>
		
			<radialGradient id="SVGID_00000181079140754941736200000016367709204899327382_" cx="205.5887" cy="163.6053" r="10.5733" gradientTransform="matrix(0.9998 0.0197 -0.0188 0.955 -0.1368 2.2656)" gradientUnits="userSpaceOnUse">
			<stop  offset="0.5944" style="stop-color:#A8355E"/>
			<stop  offset="1" style="stop-color:#841F3C"/>
		</radialGradient>
		<path style="fill:url(#SVGID_00000181079140754941736200000016367709204899327382_);" d="M202.541,152.123
			c-5.636-0.111-10.297,4.471-10.41,10.235c-0.114,5.764,4.363,10.526,9.999,10.637c5.636,0.111,10.297-4.471,10.411-10.235
			C212.653,156.997,208.177,152.234,202.541,152.123z M202.161,171.389c-4.769-0.094-8.557-4.124-8.461-9.001
			c0.096-4.877,4.04-8.754,8.809-8.66c4.769,0.094,8.557,4.124,8.461,9.001C210.874,167.606,206.93,171.483,202.161,171.389z"/>
	</g>
	<g>
		<g>
			<path style="fill:#3C3F56;" d="M272.669,147.789c-0.478,0-0.902-0.345-0.986-0.831c-0.094-0.546,0.273-1.063,0.817-1.158
				c4.662-0.803,8.88-5.435,10.255-11.262c0.127-0.539,0.669-0.873,1.204-0.745c0.539,0.126,0.872,0.665,0.745,1.204
				c-1.578,6.692-6.346,11.827-11.863,12.778C272.783,147.785,272.725,147.789,272.669,147.789z"/>
			<path style="fill:#3C3F56;" d="M278.775,154.703c-1.76,0-3.515-0.465-5.102-1.422c-0.473-0.286-0.626-0.902-0.34-1.375
				c0.287-0.473,0.902-0.625,1.375-0.34c3.354,2.027,7.678,1.275,10.52-1.823c0.377-0.407,1.009-0.434,1.415-0.063
				c0.408,0.375,0.436,1.008,0.063,1.415C284.538,153.46,281.652,154.703,278.775,154.703z"/>
		</g>
		
			<radialGradient id="SVGID_00000160879075892403793100000001444814678417555864_" cx="250.5646" cy="174.0734" r="34.7495" gradientTransform="matrix(1.0307 0.0469 -0.0576 0.7861 4.7548 7.4862)" gradientUnits="userSpaceOnUse">
			<stop  offset="0" style="stop-color:#FFFFFF"/>
			<stop  offset="0.7098" style="stop-color:#DDC6C5"/>
			<stop  offset="0.8021" style="stop-color:#E4CFCE"/>
			<stop  offset="0.9539" style="stop-color:#F8E8E7"/>
			<stop  offset="1" style="stop-color:#FFF1F0"/>
		</radialGradient>
		<path style="fill:url(#SVGID_00000160879075892403793100000001444814678417555864_);" d="M277.503,157.995
			c1.01,13.788-9.415,25.757-23.349,25.818c-13.93,0.06-24.633-11.812-23.956-25.601c0.632-12.872,11.08-22.741,23.374-22.8
			C265.87,135.353,276.56,145.126,277.503,157.995z"/>
		<path style="opacity:0.4;fill:#FFFFFF;" d="M275.285,152.651c1.869,9.947-6.742,22.702-20.202,23.287
			c-13.768,0.599-24.615-9.128-22.148-22.148c1.562-8.245,8.572-16.183,19.499-16.776
			C263.333,136.423,273.515,143.228,275.285,152.651z"/>
		<path style="fill:#FFFFFF;" d="M266.91,150.932c-1.757-3.574-2.154-7.023-0.909-7.739c1.24-0.713,3.663,1.548,5.434,5.082
			c1.791,3.575,2.245,7.11,0.991,7.862C271.166,156.893,268.687,154.546,266.91,150.932z"/>
		
			<radialGradient id="SVGID_00000008136328933840143710000006405074728740271280_" cx="239.8195" cy="155.33" r="9.2585" gradientTransform="matrix(1.051 0.0207 -0.0197 0.9998 2.0195 2.8892)" gradientUnits="userSpaceOnUse">
			<stop  offset="0" style="stop-color:#C74A85"/>
			<stop  offset="0.2777" style="stop-color:#BD427A"/>
			<stop  offset="0.7617" style="stop-color:#A32D5D"/>
			<stop  offset="0.7686" style="stop-color:#A32D5D"/>
			<stop  offset="0.9243" style="stop-color:#A73062"/>
			<stop  offset="1" style="stop-color:#AB3367"/>
		</radialGradient>
		<path style="fill:url(#SVGID_00000008136328933840143710000006405074728740271280_);" d="M260.403,163.338
			c-0.104,5.284-4.394,9.484-9.582,9.381c-5.188-0.102-9.309-4.468-9.205-9.752c0.104-5.283,4.394-9.484,9.582-9.381
			C256.386,153.688,260.508,158.054,260.403,163.338z"/>
		<path style="fill:#FFFFFF;" d="M252.913,154.678c-1.974,2.464-2.128,5.654-0.203,7.558c1.723,1.705,4.595,1.867,7.091,0.605
			C258.839,157.819,256.299,155.571,252.913,154.678z"/>
		
			<radialGradient id="SVGID_00000041998680552754444030000001205333785928239499_" cx="236.4237" cy="163.1023" r="9.6927" gradientTransform="matrix(1.0512 0.001 0.001 1 2.3181 -0.1864)" gradientUnits="userSpaceOnUse">
			<stop  offset="0.5944" style="stop-color:#A8355E"/>
			<stop  offset="1" style="stop-color:#841F3C"/>
		</radialGradient>
		<path style="fill:url(#SVGID_00000041998680552754444030000001205333785928239499_);" d="M251.207,153.137
			c-5.431-0.107-9.923,4.29-10.032,9.822c-0.109,5.531,4.205,10.102,9.637,10.209c5.431,0.107,9.923-4.29,10.032-9.821
			C260.953,157.815,256.639,153.244,251.207,153.137z M250.843,171.627c-4.596-0.091-8.246-3.958-8.154-8.638
			c0.092-4.68,3.893-8.401,8.488-8.31c4.596,0.09,8.246,3.958,8.154,8.639C259.239,167.997,255.438,171.717,250.843,171.627z"/>
	</g>
	<g style="opacity:0.15;">
		<path style="fill:#3A5A8D;" d="M246.799,293.722c0,0,2.727,7.07,7.011,9.565c0,0,4.479-4.367,7.401-13.1
			c0,0,2.337,3.327,5.843,7.07c0,0,5.453-8.317,8.569-17.467c0,0-1.168,12.06-8.18,24.121c0,0-4.09-4.159-5.453-6.862
			c0,0-2.921,7.694-7.79,12.268C254.2,309.317,246.605,303.703,246.799,293.722z"/>
		<path style="fill:#3A5A8D;" d="M180.671,293.684c0,0-3.26,6.396-7.34,8.654c0,0-3.423-3.951-4.944-11.852
			c0,0-2.463,3.01-6.008,6.397c0,0-3.804-7.526-5.447-15.803c0,0-0.427,10.912,4.299,21.823c0,0,4.11-3.763,5.639-6.208
			c0,0,1.647,6.961,5.388,11.1C172.258,307.794,179.636,302.714,180.671,293.684z"/>
		<path style="fill:#3A5A8D;" d="M223.834,284.36c0,0,2.716,10.585,9.471,15.584c0,0,4.405-3.529,7.929-12.35
			c0,0-5.066,5.293-8.149,7.277C233.084,294.871,228.018,290.167,223.834,284.36z"/>
		<path style="fill:#3A5A8D;" d="M292.496,291.859c0,0-2.113,8.436-7.366,12.42c0,0-3.426-2.812-6.167-9.842
			c0,0,3.94,4.218,6.338,5.8C285.301,300.236,289.241,296.487,292.496,291.859z"/>
		<path style="fill:#3A5A8D;" d="M223.295,271.998c0,0-2.113,8.436-7.366,12.42c0,0-3.426-2.812-6.167-9.842
			c0,0,3.94,4.218,6.338,5.8C216.1,280.376,220.04,276.626,223.295,271.998z"/>
		<path style="fill:#3A5A8D;" d="M158.582,254.936c0,0,1.574,8.54,6.456,12.808c0,0,3.492-2.617,6.557-9.484
			c0,0-4.072,3.993-6.494,5.439C165.102,263.699,161.484,259.737,158.582,254.936z"/>
		<path style="fill:#3A5A8D;" d="M222.135,291.451c0,0-2.532,8.647-7.795,13.176c0,0-3.243-3.088-5.472-8.029
			c0,0-2.314,4.735-6.848,8.441c0,0-5.348-6.176-7.098-11.529c0,0,1.008,10.5,7.107,15.441c0,0,4.762-3.706,6.597-8.029
			c0,0,1.932,6.176,6.222,10.912C214.848,311.834,221.854,304.628,222.135,291.451z"/>
		<path style="fill:#3A5A8D;" d="M293.023,258.699c0,0-2.053,7.009-6.319,10.681c0,0-2.629-2.503-4.435-6.508
			c0,0-1.876,3.838-5.551,6.842c0,0-4.335-5.006-5.754-9.345c0,0,0.817,8.511,5.761,12.516c0,0,3.859-3.004,5.347-6.508
			c0,0,1.566,5.006,5.043,8.845C287.116,275.22,292.795,269.38,293.023,258.699z"/>
	</g>
	<g>
		<path style="fill:#FDF3DE;" d="M191.591,213.72c0,0,1.752-18.175,6.756-17.925s5.982,9.325,5.982,9.325L191.591,213.72z"/>
		<path style="fill:#FDF3DE;" d="M261.769,215.972c0,0-1.115-19.677-6.119-19.426c-5.005,0.25-6.506,9.645-6.506,9.645
			L261.769,215.972z"/>
		<path style="fill:#4A3F77;" d="M180.459,228.325c0,0,0.184-0.443,0.53-1.274c0.363-0.805,0.928-1.942,1.711-3.343
			c0.801-1.389,1.851-3.022,3.165-4.81c1.355-1.759,2.97-3.668,4.893-5.597c1.952-1.898,4.201-3.824,6.8-5.542
			c2.591-1.724,5.493-3.294,8.63-4.555c3.124-1.307,6.509-2.239,9.977-2.89c1.748-0.236,3.502-0.6,5.278-0.729l5.35-0.249
			c3.684,0.109,6.976,0.168,10.624,0.92c1.803,0.218,3.485,0.755,5.157,1.261c1.7,0.421,3.288,1.111,4.84,1.821
			c1.597,0.612,3.025,1.496,4.444,2.331c1.466,0.762,2.705,1.802,3.966,2.736c2.484,1.921,4.531,4.097,6.278,6.204
			c0.868,1.059,1.576,2.166,2.33,3.163c0.657,1.062,1.28,2.069,1.865,3.015c1.063,1.956,1.891,3.717,2.491,5.208
			c0.586,1.496,0.986,2.705,1.233,3.55c0.236,0.834,0.356,1.375,0.356,1.375c0.269,1.214-0.498,2.416-1.712,2.685
			c-1.214,0.269-2.416-0.498-2.685-1.712c-0.001-0.005-0.002-0.01-0.003-0.014l-0.029-0.139c0,0-0.077-0.37-0.222-1.064
			c-0.176-0.736-0.476-1.82-0.934-3.192c-0.473-1.368-1.143-2.997-2.018-4.827c-0.489-0.887-1.01-1.831-1.559-2.825
			c-0.637-0.937-1.27-1.958-2.027-2.946c-1.537-1.957-3.338-3.989-5.549-5.797c-1.125-0.877-2.222-1.868-3.545-2.593
			c-1.268-0.809-2.572-1.625-4.038-2.197c-1.419-0.665-2.871-1.32-4.449-1.72c-1.546-0.484-3.107-1.004-4.727-1.205
			c-3.08-0.717-6.79-0.846-10.067-0.971l-5.086,0.275c-1.684,0.137-3.33,0.503-4.98,0.737c-3.261,0.645-6.42,1.547-9.318,2.793
			c-2.923,1.18-5.569,2.725-7.915,4.388c-2.356,1.656-4.375,3.492-6.124,5.289c-1.734,1.815-3.131,3.646-4.283,5.321
			c-1.119,1.7-1.997,3.233-2.658,4.525c-0.639,1.3-1.09,2.334-1.364,3.037c-0.247,0.692-0.379,1.061-0.379,1.061l-0.044,0.122
			c-0.419,1.172-1.708,1.783-2.88,1.364c-1.172-0.419-1.783-1.708-1.364-2.88C180.43,228.398,180.446,228.358,180.459,228.325z"/>
		<path style="opacity:0.5;fill:#3A5A8D;" d="M213.913,217.227c-0.05,0.026,0.406-0.244,1.022-0.551
			c0.634-0.293,1.52-0.747,2.637-1.09c2.208-0.78,5.294-1.304,8.394-1.305c1.549,0.026,3.087,0.188,4.515,0.411
			c1.419,0.268,2.725,0.597,3.811,0.965c1.106,0.314,1.961,0.747,2.575,1c0.608,0.265,0.956,0.416,0.956,0.416
			c1.139,0.495,1.661,1.82,1.165,2.959c-0.453,1.042-1.601,1.568-2.666,1.27l-0.185-0.052c0,0-0.318-0.089-0.875-0.244
			c-0.554-0.158-1.343-0.389-2.301-0.584c-0.945-0.258-2.073-0.405-3.265-0.598c-1.2-0.153-2.483-0.258-3.766-0.247
			c-2.564-0.035-5.123,0.322-6.979,0.77c-0.932,0.223-1.691,0.432-2.204,0.601c-0.524,0.178-0.692,0.243-0.742,0.268
			c-1.102,0.577-2.463,0.153-3.04-0.949C212.387,219.166,212.812,217.805,213.913,217.227z"/>
	</g>
	<g>
		<g>
			<g style="opacity:0.3;">
				<path style="fill:#4A3F77;" d="M196.898,127.752c4.405-4.703,27.935,7.865,21.965,17.406
					C213.362,153.947,189.215,135.952,196.898,127.752z"/>
			</g>
		</g>
		<path style="fill:#D362AB;" d="M197.544,123.882c4.406-4.702,27.935,7.866,21.965,17.406
			C214.009,150.077,189.862,132.083,197.544,123.882z"/>
		<path style="opacity:0.4;fill:#FFFFFF;" d="M199.546,125.505c3.253-3.729,23.161,6.823,18.075,13.812
			C214.962,142.971,196.247,129.287,199.546,125.505z"/>
	</g>
	<g>
		<g>
			<g style="opacity:0.3;">
				<path style="fill:#4A3F77;" d="M256.147,128.444c-4.153-5.144-26.968,5.2-21.392,15.35
					C239.891,153.145,263.389,137.415,256.147,128.444z"/>
			</g>
		</g>
		<path style="fill:#D362AB;" d="M255.196,124.855c-4.153-5.144-26.968,5.2-21.392,15.35
			C238.941,149.557,262.439,133.826,255.196,124.855z"/>
		<path style="opacity:0.4;fill:#FFFFFF;" d="M253.246,126.292c-3.063-4.056-22.364,4.614-17.595,12.118
			C238.144,142.334,256.352,130.405,253.246,126.292z"/>
	</g>
</g>
</svg>
